<svg width="31" height="30" viewBox="0 0 31 30" fill="none" xmlns="http://www.w3.org/2000/svg">
<g opacity="0.8">
<g clip-path="url(#clip0_2982_2404)">
<path d="M17.1768 14.9995C17.1768 15.9906 16.3734 16.7939 15.3823 16.7939C14.3913 16.7939 13.5879 15.9906 13.5879 14.9995C13.5879 14.0085 14.3913 13.2051 15.3823 13.2051C16.3734 13.2051 17.1768 14.0085 17.1768 14.9995Z" fill="#020F59"/>
<path d="M15.3828 5.625C10.2059 5.625 6.00781 9.82312 6.00781 15C6.00781 20.1769 10.2059 24.375 15.3828 24.375C20.5597 24.375 24.7578 20.1769 24.7578 15C24.7578 9.82312 20.5597 5.625 15.3828 5.625ZM20.7336 17.2194C20.7076 17.7925 20.6165 18.1837 20.4834 18.5262C20.2038 19.2493 19.6321 19.821 18.909 20.1006C18.5667 20.2337 18.1753 20.3246 17.6024 20.3508C17.0283 20.377 16.8449 20.3833 15.383 20.3833C13.9208 20.3833 13.7376 20.377 13.1634 20.3508C12.5905 20.3246 12.1991 20.2337 11.8567 20.1006C11.4974 19.9654 11.1721 19.7536 10.9032 19.4796C10.6294 19.2109 10.4175 18.8854 10.2823 18.5262C10.1493 18.1839 10.0582 17.7925 10.0321 17.2196C10.0057 16.6454 9.99951 16.462 9.99951 15C9.99951 13.538 10.0057 13.3546 10.032 12.7806C10.058 12.2075 10.149 11.8163 10.282 11.4738C10.4172 11.1146 10.6292 10.7891 10.9032 10.5204C11.172 10.2464 11.4974 10.0346 11.8566 9.89937C12.1991 9.76633 12.5903 9.67535 13.1634 9.64917C13.7374 9.62299 13.9208 9.6167 15.3828 9.6167C16.8448 9.6167 17.0282 9.62299 17.6023 9.64931C18.1753 9.67535 18.5666 9.76633 18.909 9.89923C19.2682 10.0344 19.5937 10.2464 19.8626 10.5204C20.1364 10.7893 20.3484 11.1146 20.4834 11.4738C20.6166 11.8163 20.7076 12.2075 20.7338 12.7806C20.76 13.3546 20.7661 13.538 20.7661 15C20.7661 16.462 20.76 16.6454 20.7336 17.2194Z" fill="#020F59"/>
<circle cx="17.9609" cy="11.9531" r="0.703125" fill="#020F59"/>
</g>
</g>
<defs>
<clipPath id="clip0_2982_2404">
<rect width="18.75" height="18.75" fill="white" transform="translate(6.00781 5.625)"/>
</clipPath>
</defs>
</svg>
