<svg width="32" height="30" viewBox="0 0 32 30" fill="none" xmlns="http://www.w3.org/2000/svg">
<g opacity="0.8">
<path d="M15.9867 6H15.9821C10.8883 6 6.74609 10.0365 6.74609 15C6.74609 16.9688 7.39739 18.7935 8.50483 20.2751L7.35351 23.6186L10.9045 22.5128C12.3653 23.4555 14.1078 24 15.9867 24C21.0804 24 25.2227 19.9624 25.2227 15C25.2227 10.0376 21.0804 6 15.9867 6ZM21.3622 18.7091C21.1393 19.3223 20.2548 19.8307 19.5492 19.9792C19.0665 20.0794 18.436 20.1593 16.3135 19.302C13.5986 18.2063 11.8502 15.5186 11.714 15.3442C11.5835 15.1699 10.6169 13.9211 10.6169 12.6296C10.6169 11.3381 11.2902 10.7092 11.5615 10.4392C11.7844 10.2176 12.1528 10.1164 12.5062 10.1164C12.6205 10.1164 12.7233 10.122 12.8156 10.1265C13.087 10.1378 13.2233 10.1535 13.4023 10.5709C13.6251 11.094 14.1679 12.3855 14.2326 12.5182C14.2984 12.651 14.3642 12.831 14.2718 13.0054C14.1852 13.1854 14.109 13.2652 13.9727 13.4183C13.8365 13.5712 13.7071 13.6883 13.5709 13.8525C13.4462 13.9954 13.3053 14.1484 13.4623 14.4128C13.6194 14.6715 14.1621 15.5344 14.9612 16.2274C15.9925 17.1217 16.8285 17.4075 17.1276 17.529C17.3505 17.619 17.6161 17.5976 17.7789 17.4289C17.9856 17.2118 18.2408 16.8518 18.5007 16.4974C18.6854 16.2431 18.9187 16.2116 19.1635 16.3016C19.4129 16.386 20.7329 17.0216 21.0042 17.1532C21.2756 17.286 21.4546 17.349 21.5204 17.4604C21.5851 17.5718 21.5851 18.0949 21.3622 18.7091Z" fill="#020F59"/>
</g>
</svg>
