<svg width="32" height="30" viewBox="0 0 32 30" fill="none" xmlns="http://www.w3.org/2000/svg">
<g opacity="0.8">
<circle cx="15.9365" cy="15" r="9.375" fill="#020F59"/>
<path d="M21.6264 18.0233C21.6115 17.989 21.5976 17.9605 21.5847 17.9377C21.371 17.527 20.9626 17.0228 20.3597 16.4251L20.347 16.4114L20.3406 16.4047L20.3342 16.3978H20.3277C20.0541 16.1194 19.8808 15.9323 19.8083 15.8365C19.6755 15.654 19.6458 15.4692 19.7183 15.282C19.7696 15.1406 19.9622 14.8419 20.2956 14.3855C20.4709 14.1437 20.6098 13.9498 20.7124 13.8038C21.4521 12.7543 21.7728 12.0836 21.6744 11.7916L21.6362 11.7233C21.6105 11.6823 21.5443 11.6447 21.4375 11.6104C21.3305 11.5762 21.1937 11.5705 21.0269 11.5933L19.1799 11.6069C19.15 11.5956 19.1073 11.5967 19.0517 11.6104C18.996 11.6241 18.9682 11.631 18.9682 11.631L18.9361 11.6481L18.9106 11.6687C18.8892 11.6823 18.8657 11.7063 18.84 11.7405C18.8144 11.7746 18.7931 11.8147 18.776 11.8603C18.5749 12.4124 18.3463 12.9257 18.0897 13.4002C17.9315 13.6831 17.7862 13.9283 17.6535 14.136C17.521 14.3435 17.4098 14.4964 17.3201 14.5945C17.2302 14.6926 17.1492 14.7712 17.0763 14.8306C17.0037 14.89 16.9482 14.9151 16.9097 14.9059C16.8712 14.8967 16.8349 14.8876 16.8005 14.8785C16.7407 14.8374 16.6926 14.7815 16.6564 14.7108C16.6199 14.6401 16.5954 14.5511 16.5826 14.4438C16.5698 14.3365 16.5623 14.2442 16.5601 14.1666C16.5581 14.0892 16.559 13.9795 16.5634 13.8381C16.5678 13.6966 16.5698 13.6008 16.5698 13.5506C16.5698 13.3772 16.573 13.189 16.5793 12.986C16.5858 12.7829 16.591 12.6221 16.5954 12.5035C16.5998 12.3849 16.6018 12.2594 16.6018 12.1271C16.6018 11.9947 16.5942 11.891 16.5793 11.8156C16.5646 11.7404 16.542 11.6674 16.5122 11.5966C16.4822 11.5259 16.4383 11.4712 16.3807 11.4323C16.323 11.3936 16.2512 11.3628 16.1659 11.3399C15.9392 11.2852 15.6506 11.2556 15.3 11.251C14.5048 11.2419 13.9938 11.2967 13.7672 11.4153C13.6774 11.4654 13.5962 11.5339 13.5235 11.6206C13.4465 11.721 13.4358 11.7758 13.4914 11.7848C13.7479 11.8258 13.9296 11.9239 14.0365 12.079L14.075 12.1612C14.105 12.2205 14.1349 12.3255 14.1648 12.4761C14.1947 12.6266 14.214 12.7932 14.2225 12.9756C14.2439 13.3087 14.2439 13.5939 14.2225 13.8311C14.2011 14.0685 14.1809 14.2532 14.1616 14.3855C14.1423 14.5179 14.1135 14.6251 14.075 14.7072C14.0365 14.7893 14.0108 14.8395 13.998 14.8577C13.9852 14.876 13.9745 14.8874 13.966 14.8919C13.9104 14.9147 13.8526 14.9263 13.7928 14.9263C13.7329 14.9263 13.6602 14.8943 13.5748 14.8304C13.4893 14.7665 13.4006 14.6787 13.3086 14.5669C13.2167 14.455 13.113 14.2988 12.9975 14.098C12.8821 13.8973 12.7624 13.66 12.6384 13.3863L12.5358 13.1877C12.4717 13.06 12.3841 12.874 12.2729 12.63C12.1617 12.3858 12.0634 12.1496 11.9779 11.9215C11.9437 11.8257 11.8924 11.7527 11.824 11.7025L11.7919 11.6819C11.7706 11.6637 11.7363 11.6444 11.6893 11.6238C11.6423 11.6032 11.5932 11.5884 11.5418 11.5793L9.78455 11.5929C9.60499 11.5929 9.48315 11.6363 9.41899 11.7231L9.39332 11.7641C9.38049 11.7869 9.37402 11.8234 9.37402 11.8736C9.37402 11.9238 9.38685 11.9854 9.41252 12.0584C9.66905 12.7018 9.94802 13.3223 10.2494 13.92C10.5508 14.5177 10.8127 14.9992 11.035 15.364C11.2573 15.7291 11.4839 16.0737 11.7148 16.3975C11.9457 16.7215 12.0986 16.9291 12.1733 17.0203C12.2482 17.1117 12.307 17.18 12.3498 17.2257L12.5101 17.3899C12.6127 17.4994 12.7634 17.6306 12.9622 17.7834C13.1611 17.9363 13.3813 18.0869 13.6228 18.2353C13.8644 18.3835 14.1455 18.5044 14.4662 18.5979C14.7869 18.6915 15.099 18.7291 15.4026 18.7109H16.1401C16.2897 18.6971 16.403 18.647 16.48 18.5604L16.5055 18.526C16.5227 18.4988 16.5388 18.4565 16.5536 18.3995C16.5686 18.3425 16.576 18.2797 16.576 18.2113C16.5717 18.0152 16.5857 17.8384 16.6177 17.681C16.6496 17.5236 16.686 17.405 16.7268 17.3251C16.7675 17.2453 16.8135 17.1779 16.8647 17.1233C16.9159 17.0686 16.9524 17.0354 16.9738 17.024C16.9952 17.0125 17.0122 17.0047 17.025 17.0001C17.1276 16.9636 17.2483 16.9989 17.3874 17.1062C17.5264 17.2135 17.6568 17.3458 17.7787 17.5032C17.9006 17.6607 18.047 17.8374 18.2179 18.0336C18.3891 18.2298 18.5387 18.3757 18.6669 18.4716L18.7951 18.5538C18.8807 18.6085 18.9919 18.6587 19.1288 18.7044C19.2654 18.75 19.385 18.7614 19.4878 18.7386L21.1295 18.7113C21.2919 18.7113 21.4183 18.6825 21.5079 18.6256C21.5977 18.5686 21.6511 18.5057 21.6682 18.4374C21.6854 18.369 21.6863 18.2914 21.6715 18.2046C21.6563 18.118 21.6413 18.0575 21.6264 18.0233Z" fill="white"/>
</g>
</svg>
